<?xml version="1.0" encoding="utf-8"?>
<!-- Generator: Adobe Illustrator 15.0.0, SVG Export Plug-In . SVG Version: 6.00 Build 0)  -->
<!DOCTYPE svg PUBLIC "-//W3C//DTD SVG 1.1//EN" "http://www.w3.org/Graphics/SVG/1.1/DTD/svg11.dtd">
<svg version="1.1" xmlns="http://www.w3.org/2000/svg" xmlns:xlink="http://www.w3.org/1999/xlink" x="0px" y="0px"
	 width="332.501px" height="461.301px" viewBox="0 0 332.501 461.301" style="enable-background:new 0 0 332.501 461.301;"
	 xml:space="preserve">
<style type="text/css">
<![CDATA[
	.st0{fill:none;stroke:#000444;stroke-linecap:round;stroke-miterlimit:10;}
	.st1{fill:#FFFFFF;stroke:#000000;stroke-miterlimit:10;}
	.st2{fill:#E8BB48;}
	.st3{fill:#FFF0E3;stroke:#000000;stroke-miterlimit:10;}
	.st4{fill:none;stroke:#000000;stroke-linecap:round;stroke-miterlimit:10;}
	.st5{fill:#BDD1E5;}
	.st6{fill:#F3CF9D;}
	.st7{fill:#F59687;}
	.st8{fill:#F8B32F;}
	.st9{fill:#909599;}
	.st10{fill:none;stroke:#000000;stroke-linejoin:round;stroke-miterlimit:10;}
	.st11{fill:#446EA4;stroke:#000000;stroke-miterlimit:10;}
	.st12{fill:none;stroke:#000000;stroke-width:2;stroke-linecap:round;stroke-miterlimit:10;}
	.st13{fill:none;stroke:#000000;stroke-width:3;stroke-miterlimit:10;}
	.st14{fill:#2F2E36;}
	.st15{fill:none;stroke:#000000;stroke-miterlimit:10;}
	.st16{fill:#FFF0E3;}
	.st17{fill:#FFFFFF;}
	.st18{fill:none;stroke:#000444;stroke-miterlimit:10;}
	.st19{fill:none;stroke:#000444;stroke-width:5;stroke-miterlimit:10;}
	.st20{stroke:#000444;stroke-miterlimit:10;}
	.st21{display:none;}
	.st22{fill:#FFFFFF;stroke:#000000;stroke-width:3;stroke-miterlimit:10;}
	.st23{display:inline;fill:#2F2E36;stroke:#000444;stroke-miterlimit:10;}
	.st24{fill:#2F2E36;stroke:#000444;stroke-miterlimit:10;}
	.st25{fill:#446EA4;}
]]>
</style>
<g id="shoes">
	<path class="st20" d="M150.5,444.051c0,4.28-4.09,7.75-9.135,7.75h-58.73c-5.045,0-9.135-3.47-9.135-7.75v-0.5
		c0-4.28,4.09-7.75,9.135-7.75h58.73c5.045,0,9.135,3.47,9.135,7.75V444.051z"/>
	<path class="st20" d="M248.5,444.051c0,4.28-3.949,7.75-8.82,7.75H182.32c-4.871,0-8.82-3.47-8.82-7.75v-0.5
		c0-4.28,3.949-7.75,8.82-7.75h57.359c4.871,0,8.82,3.47,8.82,7.75V444.051z"/>
</g>
<g id="bag">
	<ellipse class="st11" cx="68.42" cy="393.551" rx="35.58" ry="42.25"/>
</g>
<g id="hands">
	
		<ellipse transform="matrix(0.9627 0.2704 -0.2704 0.9627 101.4019 -2.6312)" class="st3" cx="60.25" cy="366.684" rx="13.25" ry="10.068"/>
	
		<ellipse transform="matrix(0.96 -0.28 0.28 0.96 -91.4982 90.853)" class="st3" cx="272.25" cy="365.684" rx="13.249" ry="10.069"/>
</g>
<g id="arms">
	<g>
		<path class="st14" d="M82.235,360.618c-2.683,7.709-9.741,12.273-16.076,10.203c-3.844-1.25-7.721-2.501-11.628-3.751
			c-6.445-2.072-10.188-10.001-7.921-17.715c8.706-29.489,20.379-59.042,30.475-88.512c2.683-7.709,9.742-12.274,16.077-10.204
			c3.844,1.25,7.721,2.5,11.628,3.751c6.445,2.071,10.188,10,7.921,17.716C104.005,301.595,92.332,331.147,82.235,360.618z"/>
		<path class="st18" d="M82.235,360.618c-2.683,7.709-9.741,12.273-16.076,10.203c-3.844-1.25-7.721-2.501-11.628-3.751
			c-6.445-2.072-10.188-10.001-7.921-17.715c8.706-29.489,20.379-59.042,30.475-88.512c2.683-7.709,9.742-12.274,16.077-10.204
			c3.844,1.25,7.721,2.5,11.628,3.751c6.445,2.071,10.188,10,7.921,17.716C104.005,301.595,92.332,331.147,82.235,360.618z"/>
	</g>
</g>
<g id="pants" class="st21">
	<polygon class="st23" points="248.5,391.801 248.5,442.801 183.97,442.801 160.74,416.191 137.51,442.801 73.5,442.801 
		73.5,391.801 	"/>
</g>
<g id="pants2">
	<g>
		<path class="st14" d="M248.5,392.301c1.336,16,1.336,34,0,51c-25.07,0-50.14,0-75.21,0c-3.683-9-7.499-16.993-11.319-25.5
			c-3.823,8.507-7.649,16.5-11.351,25.5c-25.707,0-51.414,0-77.12,0c-1.336-17-1.336-35,0-51
			C131.833,392.301,190.167,392.301,248.5,392.301z"/>
		<path class="st18" d="M248.5,391.801c1.336,16.974,1.336,34.026,0,51c-25.07,0-50.14,0-75.21,0
			c-3.683-8.487-7.499-16.993-11.319-25.5c-3.823,8.507-7.649,17.013-11.351,25.5c-25.707,0-51.414,0-77.12,0
			c-1.336-16.974-1.336-34.026,0-51C131.833,391.801,190.167,391.801,248.5,391.801z"/>
	</g>
</g>
<g id="body">
	<g>
		<path class="st14" d="M278.684,365.602c-3.851,1.463-7.698,2.927-11.543,4.39c-6.372,2.42-13.754-1.739-16.632-9.302
			c-0.145-0.38-0.29-0.51-0.437-0.89c-0.294,14.429-0.818,28.501-1.572,43.501c-26.75,0-53.5,0-80.25,0
			c-2.272-3-4.558-5.738-6.854-8.609c-2.231,2.871-4.447,5.609-6.646,8.609c-27.083,0-54.167,0-81.25,0
			c-3.352-43-3.683-85.603-0.994-128.226c14.198,9.733,30.898,16.87,48.984,20.61c4.66,0.97,9.41,1.708,14.249,2.268
			c0.692,0.08,1.386,0.119,2.079,0.189c1.233,0.13,2.466-0.026,3.71,0.064c3.11,0.23,6.243,0.095,9.407,0.095c0.17,0,0.34,0,0.511,0
			c10.29,0,20.344-0.98,30.019-2.98c13.23-2.73,25.761-7.151,37.202-13.209c11.05-5.828,21.079-13.003,29.702-21.371
			c0.049,0.106,0.098,0.243,0.146,0.35c12.818,28.75,25.448,57.595,36.556,86.408C287.994,355.063,285.057,363.17,278.684,365.602z"
			/>
		<path class="st18" d="M278.684,365.602c-3.851,1.463-7.698,2.927-11.543,4.39c-6.372,2.42-13.754-1.739-16.632-9.302
			c-0.145-0.38-0.29-0.76-0.437-1.14c-0.294,14.429-0.818,28.85-1.572,43.251c-26.75,0-53.5,0-80.25,0
			c-2.272-2.869-4.558-5.738-6.854-8.609c-2.231,2.871-4.447,5.74-6.646,8.609c-27.083,0-54.167,0-81.25,0
			c-3.352-42.588-3.683-85.353-0.994-127.976c14.198,9.733,30.898,16.995,48.984,20.735c4.66,0.97,9.41,1.77,14.249,2.331
			c0.692,0.08,1.386,0.15,2.079,0.22c1.233,0.13,2.466,0.24,3.71,0.33c3.11,0.23,6.243,0.36,9.407,0.36c0.17,0,0.34,0,0.511,0
			c10.29,0,20.344-1.23,30.019-3.23c13.23-2.73,25.761-7.276,37.202-13.334c11.05-5.828,21.079-13.066,29.702-21.433
			c0.049,0.106,0.098,0.212,0.146,0.318c12.818,28.75,25.448,57.58,36.556,86.392C287.994,355.079,285.057,363.17,278.684,365.602z"
			/>
	</g>
	<path class="st24" d="M248.5,260.681v0.44l-0.13-0.32v-0.01C248.41,260.761,248.46,260.721,248.5,260.681z"/>
	<path class="st19" d="M181.41,295.581c-4.9,6.4-16.23,10.8-29.41,10.8c-0.17,0-0.33-0.04-0.5-0.05
		c-12.97-0.1-24.07-4.41-28.91-10.73c4.59,0.97,9.26,1.76,14.01,2.31c0.68,0.08,1.36,0.15,2.04,0.22c1.21,0.13,2.42,0.23,3.64,0.32
		c3.05,0.23,6.12,0.35,9.22,0.35h0.5C162.08,298.801,171.92,297.581,181.41,295.581z"/>
	<line class="st19" x1="151.5" y1="295.301" x2="151.5" y2="307.301"/>
	<path class="st24" d="M248.5,260.792v0.01c-9,8.38-19.285,15.62-30.305,21.45l-3.293-8.29c-2.97-7.56-0.396-15.66,5.765-18.08
		l11.227-4.39C238.063,249.071,245.5,253.231,248.5,260.792z"/>
	<g>
		<path class="st0" d="M250.044,359.487c0.051-13.851-0.994-27.602-3.098-41.127"/>
	</g>
</g>
<g id="buttons">
	<ellipse class="st2" cx="161.962" cy="318.557" rx="6.499" ry="6.081"/>
	<ellipse class="st2" cx="161.962" cy="338.695" rx="6.499" ry="6.081"/>
	<ellipse class="st2" cx="161.962" cy="358.833" rx="6.499" ry="6.081"/>
	<ellipse class="st2" cx="161.962" cy="378.97" rx="6.499" ry="6.081"/>
</g>
<g id="baghandle2">
	<g>
		<path class="st5" d="M73.011,421.024c-1.54,1.076-3.65,0.685-4.716-0.856c-0.042-0.061-0.084-0.122-0.127-0.183
			c-1.065-1.541-0.691-3.651,0.839-4.731c51.882-36.576,101.303-80.62,146.637-131.765c1.337-1.51,3.485-1.424,4.798,0.209
			c0.052,0.065,0.104,0.129,0.157,0.194c1.312,1.632,1.281,4.194-0.067,5.699C174.87,340.642,125.155,384.574,73.011,421.024z"/>
	</g>
</g>
<g id="baghandle">
	<path class="st25" d="M218.381,310.651c-4.195,5.128-11.757,5.884-16.886,1.688l-2.321-1.9c-5.129-4.197-5.884-11.758-1.688-16.887
		l29.133-35.599c4.197-5.129,11.757-5.884,16.886-1.688l2.321,1.9c5.129,4.197,5.885,11.757,1.688,16.887L218.381,310.651z"/>
</g>
<g id="head">
	<path class="st16" d="M293.85,146.801C288.96,72.721,227.32,14.141,152,14.141c-78.51,0-142.16,63.65-142.16,142.16
		S73.49,298.461,152,298.461s142.16-63.65,142.16-142.16C294.16,153.111,294.05,149.941,293.85,146.801z"/>
	<line class="st12" x1="173" y1="147.301" x2="293" y2="147.301"/>
	<path class="st14" d="M235.22,86.841l29.271,59.96l0.17,0.36l-0.17-0.36l15.85,32.48l8.18,16.75
		c2.367-7.911,3.731-14.949,4.685-23.152c3.796-32.684-3.918-66.166-21.817-93.786C254.499,53.035,229.11,32.856,199.862,22.4
		c-31.637-11.31-67.047-10.954-98.446,1.005C69.982,35.377,43.368,58.642,27.22,88.141L27,87.801l26.023,40l26.024-40l26.027,40
		l26.028-40l26.027,40l26.028-40l26.032,40l26.032-40"/>
	<line class="st13" x1="97" y1="254.801" x2="119" y2="254.801"/>
	<path class="st1" d="M99.97,173.971c0,24.18-19.61,43.79-43.79,43.79c-24.19,0-43.79-19.61-43.79-43.79
		c0-24.19,19.6-43.79,43.79-43.79C80.36,130.181,99.97,149.781,99.97,173.971z"/>
	<path class="st1" d="M188.97,173.971c0,24.18-19.609,43.79-43.79,43.79c-24.19,0-43.79-19.61-43.79-43.79
		c0-24.19,19.6-43.79,43.79-43.79C169.36,130.181,188.97,149.781,188.97,173.971z"/>
	<circle class="st22" cx="56.177" cy="173.969" r="35.947"/>
	<circle class="st22" cx="145.177" cy="173.969" r="35.947"/>
	<path class="st17" d="M263.17,78.41c0,2.238-1.822,4.061-4.061,4.061c-0.705,0-1.354-0.18-1.932-0.487c0,0,0,0-0.01-0.009
		c-0.667-1.011-1.362-2.004-2.075-2.987c-7.039-9.747-15.585-18.329-25.295-25.413c-1.057-0.776-2.121-1.534-3.213-2.265
		c-0.271-0.542-0.415-1.137-0.415-1.778c0-2.247,1.813-4.061,4.061-4.061c0.234,0,0.461,0.018,0.687,0.063
		c0.957,0.649,1.904,1.317,2.843,1.994c10.459,7.581,19.655,16.794,27.209,27.271c0.739,1.029,1.461,2.067,2.174,3.114
		C263.161,78.076,263.17,78.239,263.17,78.41z"/>
	<path class="st12" d="M245.5,155.554c1.61-0.802,3.34-1.278,5.16-1.396c0.28-0.019,0.56-0.027,0.84-0.027
		c9.03,0,16.36,9.122,16.36,20.37c0,3.071-0.54,5.971-1.521,8.582c-2.6,6.961-8.27,11.788-14.84,11.788c-2.12,0-4.14-0.505-6-1.423"
		/>
	<polyline class="st18" points="235.22,86.841 264.49,146.801 264.66,147.161 	"/>
	<line class="st18" x1="288.52" y1="196.032" x2="280.34" y2="179.282"/>
	<polyline class="st18" points="27.22,88.141 53.02,127.801 79.05,87.801 105.07,127.801 131.1,87.801 157.13,127.801 
		183.16,87.801 209.19,127.801 235.22,87.801 	"/>
	<path class="st18" d="M294.16,156.301c0,78.51-63.65,142.16-142.16,142.16S9.84,234.811,9.84,156.301c0-24.7,6.3-47.93,17.38-68.16
		c24.14-44.1,70.97-74,124.78-74c75.32,0,136.96,58.58,141.85,132.66C294.05,149.941,294.16,153.111,294.16,156.301z"/>
	<line class="st18" x1="280.34" y1="179.282" x2="264.66" y2="147.161"/>
	<path class="st15" d="M263.17,78.41c0,2.238-1.822,4.061-4.061,4.061c-0.705,0-1.354-0.18-1.932-0.487c0,0,0,0-0.01-0.009
		c-0.667-1.011-1.362-2.004-2.075-2.987c-7.039-9.747-15.585-18.329-25.295-25.413c-1.057-0.776-2.121-1.534-3.213-2.265
		c-0.271-0.542-0.415-1.137-0.415-1.778c0-2.247,1.813-4.061,4.061-4.061c0.234,0,0.461,0.018,0.687,0.063
		c0.957,0.649,1.904,1.317,2.843,1.994c10.459,7.581,19.655,16.794,27.209,27.271c0.739,1.029,1.461,2.067,2.174,3.114
		C263.161,78.076,263.17,78.239,263.17,78.41z"/>
	<g id="XMLID_1_">
		<g>
			<polygon class="st8" points="248.686,128.212 308.404,157.303 305.443,163.382 263.564,142.909 245.766,134.206 248.627,128.333 
							"/>
			<polygon class="st9" points="243.971,125.916 248.686,128.212 248.627,128.333 245.766,134.206 245.708,134.326 242.729,140.439 
				239.81,146.433 235.096,144.137 			"/>
			<path class="st7" d="M237.161,122.599l6.81,3.317l-8.875,18.221l-6.811-3.317c-3.473-1.692-5.659-4.35-4.885-5.939l6.073-12.467
				C230.247,120.824,233.688,120.907,237.161,122.599z"/>
			<polygon class="st6" points="308.404,157.303 319.252,169.629 315.85,176.615 299.528,175.525 302.406,169.616 305.443,163.382 
							"/>
			<polygon points="319.252,169.629 319.827,170.285 325.999,177.293 317.168,176.703 315.85,176.615 			"/>
			<polygon class="st8" points="245.766,134.206 263.564,142.909 305.443,163.382 302.406,169.616 260.527,149.142 242.729,140.439 
				245.708,134.326 			"/>
			<polygon class="st8" points="242.729,140.439 260.527,149.142 302.406,169.616 299.528,175.525 239.81,146.433 			"/>
		</g>
		<g>
			<line class="st10" x1="299.528" y1="175.525" x2="239.81" y2="146.433"/>
			<polyline class="st10" points="242.729,140.439 260.527,149.142 302.406,169.616 			"/>
			<polyline class="st10" points="245.708,134.326 242.729,140.439 239.81,146.433 235.096,144.137 			"/>
			<polyline class="st10" points="305.443,163.382 263.564,142.909 245.766,134.206 			"/>
			<polyline class="st10" points="243.971,125.916 248.686,128.212 308.404,157.303 			"/>
			<path class="st15" d="M235.096,144.137l-6.811-3.317c-3.473-1.692-5.659-4.35-4.885-5.939l6.073-12.467
				c0.773-1.59,4.214-1.507,7.688,0.185l6.81,3.317L235.096,144.137z"/>
			<polyline class="st15" points="248.627,128.333 245.766,134.206 245.708,134.326 			"/>
			<polyline class="st4" points="325.999,177.293 317.168,176.703 315.85,176.615 			"/>
			<polyline class="st4" points="325.999,177.293 319.827,170.285 319.252,169.629 			"/>
			<polygon class="st10" points="308.404,157.303 319.252,169.629 315.85,176.615 299.528,175.525 302.406,169.616 305.443,163.382 
							"/>
		</g>
	</g>
</g>
</svg>
