<?xml version="1.0" encoding="utf-8"?>
<!-- Generator: Adobe Illustrator 15.0.0, SVG Export Plug-In . SVG Version: 6.00 Build 0)  -->
<!DOCTYPE svg PUBLIC "-//W3C//DTD SVG 1.1//EN" "http://www.w3.org/Graphics/SVG/1.1/DTD/svg11.dtd">
<svg version="1.1" xmlns="http://www.w3.org/2000/svg" xmlns:xlink="http://www.w3.org/1999/xlink" x="0px" y="0px" width="333px"
	 height="300px" viewBox="0 0 333 300" style="enable-background:new 0 0 333 300;" xml:space="preserve">
<style type="text/css">
<![CDATA[
	.st0{fill:#FFFFFF;stroke:#000000;stroke-miterlimit:10;}
	.st1{display:inline;fill:none;stroke:#000000;stroke-miterlimit:10;}
	.st2{fill:none;stroke:#FFDCB1;stroke-miterlimit:10;}
	.st3{fill:none;stroke:#000000;stroke-linecap:round;stroke-miterlimit:10;}
	.st4{display:none;fill:none;stroke:#000000;stroke-miterlimit:10;}
	.st5{fill:#F3CF9D;}
	.st6{fill:#F59687;}
	.st7{display:none;fill:none;stroke:#000444;stroke-miterlimit:10;}
	.st8{fill:#F8B32F;}
	.st9{fill:#909599;}
	.st10{fill:none;stroke:#000000;stroke-linejoin:round;stroke-miterlimit:10;}
	.st11{display:none;fill:none;stroke:#000000;stroke-width:2;stroke-linecap:round;stroke-miterlimit:10;}
	.st12{fill:none;stroke:#000000;stroke-width:2;stroke-linecap:round;stroke-miterlimit:10;}
	.st13{fill:none;stroke:#000000;stroke-width:3;stroke-miterlimit:10;}
	.st14{fill:#2F2E36;}
	.st15{fill:none;stroke:#000000;stroke-miterlimit:10;}
	.st16{fill:#FFF0E3;}
	.st17{fill:#FFFFFF;}
	.st18{fill:none;stroke:#000444;stroke-miterlimit:10;}
	.st19{display:none;}
	.st20{fill:#FFFFFF;stroke:#000000;stroke-width:3;stroke-miterlimit:10;}
]]>
</style>
<g id="skin">
	<path class="st16" d="M292.85,140.5C287.96,66.42,226.32,7.84,151,7.84C72.49,7.84,8.84,71.49,8.84,150S72.49,292.16,151,292.16
		S293.16,228.51,293.16,150C293.16,146.81,293.05,143.64,292.85,140.5z"/>
</g>
<g id="Layer_1" class="st19">
	<path class="st2" d="M291.85,140.5C286.96,66.42,225.32,7.84,150,7.84C71.49,7.84,7.84,71.49,7.84,150S71.49,292.16,150,292.16
		S292.16,228.51,292.16,150C292.16,146.81,292.05,143.64,291.85,140.5z"/>
	<path class="st15" d="M54.18,211.46c-24.19,0-43.79-19.61-43.79-43.79c0-24.19,19.6-43.79,43.79-43.79
		c24.18,0,43.79,19.6,43.79,43.79C97.97,191.85,78.36,211.46,54.18,211.46z"/>
	<path class="st15" d="M143.18,211.46c-24.19,0-43.79-19.61-43.79-43.79c0-24.19,19.6-43.79,43.79-43.79
		c24.18,0,43.79,19.6,43.79,43.79C186.97,191.85,167.36,211.46,143.18,211.46z"/>
	<path class="st15" d="M257.5,142.41c1.61-0.89,3.34-1.42,5.16-1.55c0.28-0.02,0.56-0.03,0.84-0.03c9.03,0,16.36,10.13,16.36,22.62
		c0,3.41-0.54,6.63-1.521,9.53c-2.6,7.729-8.27,13.09-14.84,13.09c-2.12,0-4.14-0.561-6-1.58"/>
	<path class="st15" d="M97.97,167.67c0,24.18-19.61,43.79-43.79,43.79c-24.19,0-43.79-19.61-43.79-43.79
		c0-24.19,19.6-43.79,43.79-43.79C78.36,123.88,97.97,143.48,97.97,167.67z"/>
	<path class="st15" d="M186.97,167.67c0,24.18-19.609,43.79-43.79,43.79c-24.19,0-43.79-19.61-43.79-43.79
		c0-24.19,19.6-43.79,43.79-43.79C167.36,123.88,186.97,143.48,186.97,167.67z"/>
	<g>
		<path class="st1" d="M0-25"/>
	</g>
	<path class="st15" d="M97.97,167.67c0,24.18-19.61,43.79-43.79,43.79c-24.19,0-43.79-19.61-43.79-43.79
		c0-24.19,19.6-43.79,43.79-43.79C78.36,123.88,97.97,143.48,97.97,167.67z"/>
	<path class="st15" d="M186.97,167.67c0,24.18-19.609,43.79-43.79,43.79c-24.19,0-43.79-19.61-43.79-43.79
		c0-24.19,19.6-43.79,43.79-43.79C167.36,123.88,186.97,143.48,186.97,167.67z"/>
	<line class="st15" x1="95" y1="248.5" x2="117" y2="248.5"/>
	<polyline class="st15" points="25,81.5 51.023,121.5 77.047,81.5 103.075,121.5 129.103,81.5 155.13,121.5 181.158,81.5 
		207.19,121.5 233.223,81.5 	"/>
	<line class="st15" x1="286.52" y1="189.73" x2="278.34" y2="172.98"/>
	<polyline class="st15" points="262.66,140.86 262.49,140.5 233.22,80.54 	"/>
	<circle class="st15" cx="54.177" cy="167.668" r="35.947"/>
	<circle class="st15" cx="143.177" cy="167.668" r="35.947"/>
	<line class="st1" x1="178" y1="140.5" x2="292" y2="140.5"/>
	<path class="st1" d="M245.5,142.41c1.61-0.89,3.34-1.42,5.16-1.55c0.28-0.02,0.56-0.03,0.84-0.03c9.03,0,16.36,10.13,16.36,22.62
		c0,3.41-0.54,6.63-1.521,9.53c-2.6,7.729-8.27,13.09-14.84,13.09c-2.12,0-4.14-0.561-6-1.58"/>
	<path class="st1" d="M261.17,72.109c0,2.238-1.822,4.061-4.061,4.061c-0.705,0-1.354-0.18-1.932-0.487c0,0,0,0-0.01-0.009
		c-0.667-1.011-1.362-2.004-2.075-2.987c-7.039-9.747-15.585-18.329-25.295-25.413c-1.057-0.776-2.121-1.534-3.213-2.265
		c-0.271-0.542-0.415-1.137-0.415-1.778c0-2.247,1.813-4.061,4.061-4.061c0.234,0,0.461,0.018,0.687,0.063
		c0.957,0.649,1.904,1.317,2.843,1.994c10.459,7.581,19.655,16.794,27.209,27.271c0.739,1.029,1.461,2.067,2.174,3.114
		C261.161,71.775,261.17,71.938,261.17,72.109z"/>
</g>
<g id="glass_extension">
	<line class="st12" x1="172" y1="141" x2="292" y2="141"/>
	<path class="st11" d="M243.5,148.253c1.61-0.802,3.34-1.279,5.16-1.396c0.28-0.018,0.56-0.027,0.84-0.027
		c9.03,0,16.36,9.122,16.36,20.37c0,3.071-0.54,5.971-1.521,8.582c-2.6,6.961-8.27,11.788-14.84,11.788c-2.12,0-4.14-0.505-6-1.423"
		/>
</g>
<g id="hair">
	<path class="st14" d="M234.22,80.54l29.271,59.96l0.17,0.36l-0.17-0.36l15.85,32.48l8.18,16.75
		c2.367-7.911,3.731-14.949,4.685-23.152c3.796-32.684-3.918-66.166-21.817-93.786c-16.888-26.058-42.276-46.237-71.524-56.693
		c-31.637-11.31-67.047-10.954-98.446,1.005C68.982,29.076,42.368,52.341,26.22,81.84L26,81.5l26.023,40l26.024-40l26.027,40
		l26.028-40l26.027,40l26.028-40l26.032,40l26.032-40"/>
</g>
<g id="mouth">
	<line class="st13" x1="96" y1="248.5" x2="118" y2="248.5"/>
</g>
<g id="glasses">
	<path class="st0" d="M98.97,167.67c0,24.18-19.61,43.79-43.79,43.79c-24.19,0-43.79-19.61-43.79-43.79
		c0-24.19,19.6-43.79,43.79-43.79C79.36,123.88,98.97,143.48,98.97,167.67z"/>
	<path class="st0" d="M187.97,167.67c0,24.18-19.609,43.79-43.79,43.79c-24.19,0-43.79-19.61-43.79-43.79
		c0-24.19,19.6-43.79,43.79-43.79C168.36,123.88,187.97,143.48,187.97,167.67z"/>
	<circle class="st20" cx="55.177" cy="167.668" r="35.947"/>
	<circle class="st20" cx="144.177" cy="167.668" r="35.947"/>
</g>
<g id="teka">
	<path class="st17" d="M262.17,72.109c0,2.238-1.822,4.061-4.061,4.061c-0.705,0-1.354-0.18-1.932-0.487c0,0,0,0-0.01-0.009
		c-0.667-1.011-1.362-2.004-2.075-2.987c-7.039-9.747-15.585-18.329-25.295-25.413c-1.057-0.776-2.121-1.534-3.213-2.265
		c-0.271-0.542-0.415-1.137-0.415-1.778c0-2.247,1.813-4.061,4.061-4.061c0.234,0,0.461,0.018,0.687,0.063
		c0.957,0.649,1.904,1.317,2.843,1.994c10.459,7.581,19.655,16.794,27.209,27.271c0.739,1.029,1.461,2.067,2.174,3.114
		C262.161,71.775,262.17,71.938,262.17,72.109z"/>
</g>
<g id="ear">
	<path class="st12" d="M244.5,149.253c1.61-0.802,3.34-1.278,5.16-1.396c0.28-0.019,0.56-0.027,0.84-0.027
		c9.03,0,16.36,9.122,16.36,20.37c0,3.071-0.54,5.971-1.521,8.582c-2.6,6.961-8.27,11.788-14.84,11.788c-2.12,0-4.14-0.505-6-1.423"
		/>
</g>
<g id="outline">
	<path class="st7" d="M257.5,142.41c1.61-0.89,3.34-1.42,5.16-1.55c0.28-0.02,0.56-0.03,0.84-0.03c9.03,0,16.36,10.13,16.36,22.62
		c0,3.41-0.54,6.63-1.521,9.53c-2.6,7.729-8.27,13.09-14.84,13.09c-2.12,0-4.14-0.561-6-1.58"/>
	<polyline class="st18" points="234.22,80.54 263.49,140.5 263.66,140.86 	"/>
	<line class="st18" x1="287.52" y1="189.73" x2="279.34" y2="172.98"/>
	<polyline class="st18" points="26.22,81.84 52.02,121.5 78.05,81.5 104.07,121.5 130.1,81.5 156.13,121.5 182.16,81.5 
		208.19,121.5 234.22,81.5 	"/>
	<path class="st18" d="M293.16,150c0,78.51-63.65,142.16-142.16,142.16S8.84,228.51,8.84,150c0-24.7,6.3-47.93,17.38-68.16
		c24.14-44.1,70.97-74,124.78-74c75.32,0,136.96,58.58,141.85,132.66C293.05,143.64,293.16,146.81,293.16,150z"/>
	<line class="st18" x1="279.34" y1="172.98" x2="263.66" y2="140.86"/>
	<path class="st15" d="M262.17,72.109c0,2.238-1.822,4.061-4.061,4.061c-0.705,0-1.354-0.18-1.932-0.487c0,0,0,0-0.01-0.009
		c-0.667-1.011-1.362-2.004-2.075-2.987c-7.039-9.747-15.585-18.329-25.295-25.413c-1.057-0.776-2.121-1.534-3.213-2.265
		c-0.271-0.542-0.415-1.137-0.415-1.778c0-2.247,1.813-4.061,4.061-4.061c0.234,0,0.461,0.018,0.687,0.063
		c0.957,0.649,1.904,1.317,2.843,1.994c10.459,7.581,19.655,16.794,27.209,27.271c0.739,1.029,1.461,2.067,2.174,3.114
		C262.161,71.775,262.17,71.938,262.17,72.109z"/>
</g>
<g id="pencil">
	<polygon class="st4" points="155.5,87.5 155.39,121.5 155.14,201.5 129.14,201.5 129.39,121.5 129.5,87.5 	"/>
	<g id="XMLID_1_">
		<g>
			<polygon class="st8" points="247.685,121.911 307.403,151.001 304.441,157.081 262.562,136.607 244.765,127.905 247.626,122.031 
							"/>
			<polygon class="st9" points="242.97,119.614 247.685,121.911 247.626,122.031 244.765,127.905 244.706,128.024 241.729,134.138 
				238.809,140.131 234.094,137.835 			"/>
			<path class="st6" d="M236.159,116.297l6.811,3.317l-8.876,18.221l-6.81-3.317c-3.474-1.692-5.659-4.35-4.885-5.939l6.072-12.467
				C229.246,114.522,232.687,114.605,236.159,116.297z"/>
			<polygon class="st5" points="307.403,151.001 318.251,163.327 314.848,170.313 298.526,169.224 301.405,163.314 304.441,157.081 
							"/>
			<polygon points="318.251,163.327 318.825,163.983 324.998,170.992 316.166,170.401 314.848,170.313 			"/>
			<polygon class="st8" points="244.765,127.905 262.562,136.607 304.441,157.081 301.405,163.314 259.526,142.84 241.729,134.138 
				244.706,128.024 			"/>
			<polygon class="st8" points="241.729,134.138 259.526,142.84 301.405,163.314 298.526,169.224 238.809,140.131 			"/>
		</g>
		<g>
			<line class="st10" x1="298.526" y1="169.224" x2="238.809" y2="140.131"/>
			<polyline class="st10" points="241.729,134.138 259.526,142.84 301.405,163.314 			"/>
			<polyline class="st10" points="244.706,128.024 241.729,134.138 238.809,140.131 234.094,137.835 			"/>
			<polyline class="st10" points="304.441,157.081 262.562,136.607 244.765,127.905 			"/>
			<polyline class="st10" points="242.97,119.614 247.685,121.911 307.403,151.001 			"/>
			<path class="st15" d="M234.094,137.835l-6.81-3.317c-3.474-1.692-5.659-4.35-4.885-5.939l6.072-12.467
				c0.774-1.589,4.215-1.506,7.688,0.186l6.811,3.317L234.094,137.835z"/>
			<polyline class="st15" points="247.626,122.031 244.765,127.905 244.706,128.024 			"/>
			<polyline class="st3" points="324.998,170.992 316.166,170.401 314.848,170.313 			"/>
			<polyline class="st3" points="324.998,170.992 318.825,163.983 318.251,163.327 			"/>
			<polygon class="st10" points="307.403,151.001 318.251,163.327 314.848,170.313 298.526,169.224 301.405,163.314 
				304.441,157.081 			"/>
		</g>
	</g>
</g>
</svg>
