<?xml version="1.0" encoding="utf-8"?>
<!-- Generator: Adobe Illustrator 15.0.0, SVG Export Plug-In . SVG Version: 6.00 Build 0)  -->
<!DOCTYPE svg PUBLIC "-//W3C//DTD SVG 1.1//EN" "http://www.w3.org/Graphics/SVG/1.1/DTD/svg11.dtd">
<svg version="1.1" xmlns="http://www.w3.org/2000/svg" xmlns:xlink="http://www.w3.org/1999/xlink" x="0px" y="0px"
	 width="888.089px" height="711.071px" viewBox="0 0 888.089 711.071" style="enable-background:new 0 0 888.089 711.071;"
	 xml:space="preserve">
<style type="text/css">
<![CDATA[
	.st0{fill:#F9BE42;}
	.st1{fill:#FFFFFF;}
]]>
</style>
<g id="Layer_1">
	<rect x="-8.78" y="-6.783" class="st0" width="907" height="726"/>
</g>
<g id="Layer_2">
	<path class="st1" d="M536.712,304.249c-31.477,0-57.084-25.608-57.084-57.085c0-31.476,25.607-57.084,57.084-57.084
		s57.084,25.608,57.084,57.084C593.796,278.64,568.189,304.249,536.712,304.249z M536.712,195.08
		c-28.719,0-52.084,23.365-52.084,52.084c0,28.72,23.365,52.085,52.084,52.085s52.084-23.365,52.084-52.085
		C588.796,218.444,565.431,195.08,536.712,195.08z"/>
	<path class="st1" d="M65.401,136.625c-27.445,0-49.773-22.328-49.773-49.773S37.956,37.08,65.401,37.08
		s49.772,22.328,49.772,49.772S92.846,136.625,65.401,136.625z M65.401,42.08c-24.688,0-44.773,20.085-44.773,44.772
		c0,24.688,20.085,44.773,44.773,44.773c24.688,0,44.772-20.085,44.772-44.773C110.173,62.165,90.088,42.08,65.401,42.08z"/>
	<path class="st1" d="M804.277,592.625c-21.862,0-39.648-17.787-39.648-39.65c0-21.862,17.786-39.648,39.648-39.648
		c21.863,0,39.65,17.786,39.65,39.648C843.927,574.838,826.14,592.625,804.277,592.625z M804.277,518.327
		c-19.105,0-34.648,15.543-34.648,34.648c0,19.106,15.543,34.65,34.648,34.65c19.106,0,34.65-15.544,34.65-34.65
		C838.927,533.87,823.383,518.327,804.277,518.327z"/>
	<path class="st1" d="M94.622,687.731l-53.804-44.13l65.121-24.531L94.622,687.731z M50.685,645.228l40.411,33.146l8.501-51.571
		L50.685,645.228z"/>
	<path class="st1" d="M427.83,117.217h-69.586l34.793-60.265L427.83,117.217z M366.904,112.217h52.266l-26.133-45.265
		L366.904,112.217z"/>
	<path class="st1" d="M386.041,454.685l-81.369-77.273l107.606-31.833L386.041,454.685z M314.394,379.75l68.81,65.346l22.188-92.265
		L314.394,379.75z"/>
	<path class="st1" d="M804.615,189.853l27.985-63.712l41.183,56.093L804.615,189.853z M833.696,136.082l-21.021,47.854l51.951-5.723
		L833.696,136.082z"/>
	<path class="st1" d="M48.113,400.355l-32.522-83.254l82.498-32.227l32.522,83.253L48.113,400.355z M22.067,319.939l28.884,73.939
		l73.184-28.589l-28.884-73.938L22.067,319.939z"/>
	<path class="st1" d="M780.758,388.004l-86.424-5.689l5.64-85.64l86.423,5.69L780.758,388.004z M699.653,377.655l76.445,5.033
		l4.98-75.662l-76.444-5.034L699.653,377.655z"/>
	<path class="st1" d="M367.553,674.967l-21.531-71.052l71.702-21.728l21.531,71.051L367.553,674.967z M351.417,606.801
		l19.022,62.773l63.424-19.222l-19.024-62.771L351.417,606.801z"/>
	<path class="st1" d="M218.061,567.973l-27.729-25.934l-37.084,8.139l16.098-34.385l-19.2-32.754l37.676,4.684l25.217-28.382
		l7.188,37.28l34.785,15.212l-33.233,18.356L218.061,567.973z M191.829,536.592l22.248,20.809l2.983-30.316l26.667-14.729
		l-27.912-12.206l-5.769-29.913l-20.232,22.772l-30.23-3.758l15.405,26.281l-12.916,27.592L191.829,536.592z"/>
	<path class="st1" d="M578.688,547.053l-23.725-33.2l-40.801,0.722l24.245-32.823l-13.295-38.579l38.709,12.914l32.584-24.565
		l-0.321,40.806l33.433,23.397l-38.909,12.304L578.688,547.053z M557.502,508.808l19.363,27.095l9.729-31.85l31.755-10.042
		l-27.286-19.095l0.263-33.304l-26.593,20.048l-31.593-10.539l10.852,31.485l-19.788,26.79L557.502,508.808z"/>
	<path class="st1" d="M239.928,267.056l-1.735-42.346l-35.866-22.577l39.737-14.735l10.389-41.088l26.293,33.239l42.288-2.816
		l-23.488,35.277l15.746,39.348l-40.809-11.437L239.928,267.056z M213.565,203.299l29.517,18.58l1.427,34.849l26.793-22.33
		l33.584,9.411l-12.959-32.381l19.331-29.033l-34.802,2.318l-21.638-27.355l-8.55,33.814L213.565,203.299z"/>
	<path class="st1" d="M684.061,125.973l-27.729-25.934l-37.084,8.139l16.098-34.386l-19.2-32.754l37.676,4.684l25.217-28.381
		l7.188,37.28l34.785,15.212L687.779,88.19L684.061,125.973z M657.829,94.592l22.248,20.809l2.983-30.316l26.667-14.729
		l-27.912-12.206l-5.769-29.914l-20.232,22.773l-30.23-3.758l15.405,26.281l-12.916,27.591L657.829,94.592z"/>
	<path class="st1" d="M680.784,667.047l-64.295,19.515l15.247-65.439L680.784,667.047z M620.582,682.192l54.371-16.503
		l-41.478-38.836L620.582,682.192z"/>
</g>
</svg>
